{
    "asset" : {
        "generator" : "Khronos glTF Blender I/O v1.2.75",
        "version" : "2.0"
    },
    "scene" : 0,
    "scenes" : [
        {
            "extras" : {
                "glTF2ExportSettings" : {
                    "export_animations" : 1,
                    "export_cameras" : 0,
                    "export_colors" : 1,
                    "export_extras" : 1,
                    "export_force_sampling" : 0,
                    "export_format" : "GLTF_EMBEDDED",
                    "export_image_format" : "AUTO",
                    "export_lights" : 0,
                    "export_materials" : 1,
                    "export_morph" : 1,
                    "export_normals" : 1,
                    "export_skins" : 1,
                    "export_texcoords" : 1,
                    "export_yup" : 1
                }
            },
            "name" : "Scene",
            "nodes" : [
                0
            ]
        }
    ],
    "nodes" : [
        {
            "extras" : {
                "sparkar_optimization" : {
                    "InvertedReducePercentage" : 0
                },
                "spark_blender_addon" : 1
            },
            "mesh" : 0,
            "name" : "result_IMG_1692-removebg-preview_256"
        }
    ],
    "materials" : [
        {
            "doubleSided" : true,
            "emissiveFactor" : [
                0,
                0,
                0
            ],
            "name" : "Default OBJ",
            "pbrMetallicRoughness" : {
                "baseColorTexture" : {
                    "index" : 0,
                    "texCoord" : 0
                },
                "metallicFactor" : 0,
                "roughnessFactor" : 0.5
            }
        },
        {
            "doubleSided" : true,
            "emissiveFactor" : [
                0,
                0,
                0
            ],
            "name" : "Material.001",
            "pbrMetallicRoughness" : {
                "baseColorFactor" : [
                    0,
                    0,
                    0,
                    1
                ],
                "metallicFactor" : 0,
                "roughnessFactor" : 0.5
            }
        },
        {
            "doubleSided" : true,
            "emissiveFactor" : [
                0,
                0,
                0
            ],
            "name" : "Material.002",
            "pbrMetallicRoughness" : {
                "baseColorFactor" : [
                    0,
                    0,
                    0,
                    1
                ],
                "metallicFactor" : 0,
                "roughnessFactor" : 0.5
            }
        }
    ],
    "meshes" : [
        {
            "name" : "result_IMG_1692-removebg-preview_256",
            "primitives" : [
                {
                    "attributes" : {
                        "POSITION" : 0,
                        "NORMAL" : 1,
                        "TEXCOORD_0" : 2
                    },
                    "indices" : 3,
                    "material" : 0
                },
                {
                    "attributes" : {
                        "POSITION" : 4,
                        "NORMAL" : 5,
                        "TEXCOORD_0" : 6
                    },
                    "indices" : 7,
                    "material" : 1
                },
                {
                    "attributes" : {
                        "POSITION" : 8,
                        "NORMAL" : 9,
                        "TEXCOORD_0" : 10
                    },
                    "indices" : 11,
                    "material" : 2
                }
            ]
        }
    ],
    "textures" : [
        {
            "source" : 0
        }
    ],
    "images" : [
        {
            "bufferView" : 4,
            "mimeType" : "image/png",
            "name" : "IMG_1692-removebg-preview"
        }
    ],
    "accessors" : [
        {
            "bufferView" : 0,
            "componentType" : 5126,
            "count" : 67347,
            "max" : [
                0.39863255620002747,
                0.8386930823326111,
                0.14092721045017242
            ],
            "min" : [
                -0.41438841819763184,
                -0.8815310001373291,
                -0.13983981311321259
            ],
            "type" : "VEC3"
        },
        {
            "bufferView" : 1,
            "componentType" : 5126,
            "count" : 67347,
            "type" : "VEC3"
        },
        {
            "bufferView" : 2,
            "componentType" : 5126,
            "count" : 67347,
            "type" : "VEC2"
        },
        {
            "bufferView" : 3,
            "componentType" : 5125,
            "count" : 67599,
            "type" : "SCALAR"
        },
        {
            "bufferView" : 5,
            "componentType" : 5126,
            "count" : 1860,
            "max" : [
                0.11343586444854736,
                0.8382396697998047,
                0.05156490579247475
            ],
            "min" : [
                -0.054120924323797226,
                0.6211423873901367,
                -0.09279049932956696
            ],
            "type" : "VEC3"
        },
        {
            "bufferView" : 6,
            "componentType" : 5126,
            "count" : 1860,
            "type" : "VEC3"
        },
        {
            "bufferView" : 7,
            "componentType" : 5126,
            "count" : 1860,
            "type" : "VEC2"
        },
        {
            "bufferView" : 8,
            "componentType" : 5123,
            "count" : 1860,
            "type" : "SCALAR"
        },
        {
            "bufferView" : 9,
            "componentType" : 5126,
            "count" : 171,
            "max" : [
                0.09589599072933197,
                0.7796544432640076,
                -0.0022228104062378407
            ],
            "min" : [
                -0.021485427394509315,
                0.6297563314437866,
                -0.09279049932956696
            ],
            "type" : "VEC3"
        },
        {
            "bufferView" : 10,
            "componentType" : 5126,
            "count" : 171,
            "type" : "VEC3"
        },
        {
            "bufferView" : 11,
            "componentType" : 5126,
            "count" : 171,
            "type" : "VEC2"
        },
        {
            "bufferView" : 12,
            "componentType" : 5123,
            "count" : 171,
            "type" : "SCALAR"
        }
    ],
    "bufferViews" : [
        {
            "buffer" : 0,
            "byteLength" : 808164,
            "byteOffset" : 0
        },
        {
            "buffer" : 0,
            "byteLength" : 808164,
            "byteOffset" : 808164
        },
        {
            "buffer" : 0,
            "byteLength" : 538776,
            "byteOffset" : 1616328
        },
        {
            "buffer" : 0,
            "byteLength" : 270396,
            "byteOffset" : 2155104
        },
        {
            "buffer" : 0,
            "byteLength" : 219206,
            "byteOffset" : 2425500
        },
        {
            "buffer" : 0,
            "byteLength" : 22320,
            "byteOffset" : 2644708
        },
        {
            "buffer" : 0,
            "byteLength" : 22320,
            "byteOffset" : 2667028
        },
        {
            "buffer" : 0,
            "byteLength" : 14880,
            "byteOffset" : 2689348
        },
        {
            "buffer" : 0,
            "byteLength" : 3720,
            "byteOffset" : 2704228
        },
        {
            "buffer" : 0,
            "byteLength" : 2052,
            "byteOffset" : 2707948
        },
        {
            "buffer" : 0,
            "byteLength" : 2052,
            "byteOffset" : 2710000
        },
        {
            "buffer" : 0,
            "byteLength" : 1368,
            "byteOffset" : 2712052
        },
        {
            "buffer" : 0,
            "byteLength" : 342,
            "byteOffset" : 2713420
        }
    ],
    "buffers" : [
        {
            "byteLength" : 2713764,
            "uri" : "data:application/octet-stream;base64,"
        }
    ]
}
